<svg width="1345" height="328" viewBox="0 0 1345 328" fill="none" xmlns="http://www.w3.org/2000/svg">
<path d="M325.5 164C325.5 253.751 252.966 326.5 163.5 326.5C74.0342 326.5 1.5 253.751 1.5 164C1.5 74.2494 74.0342 1.5 163.5 1.5C252.966 1.5 325.5 74.2494 325.5 164Z" fill="#F9F9F9" stroke="#D9D9D9" stroke-width="3"/>
<path d="M163.5 67L67 119.667L102.091 138.802V191.469L163.5 225L224.909 191.469V138.802L242.455 129.234V189.889H260V119.667L163.5 67ZM223.33 119.667L163.5 152.32L103.67 119.667L163.5 87.0133L223.33 119.667ZM207.364 181.111L163.5 204.987L119.636 181.111V148.37L163.5 172.333L207.364 148.37V181.111Z" fill="#B7CFE1"/>
<path d="M834.5 164C834.5 253.755 762.185 326.5 673 326.5C583.815 326.5 511.5 253.755 511.5 164C511.5 74.2451 583.815 1.5 673 1.5C762.185 1.5 834.5 74.2451 834.5 164Z" fill="#FCFCFC" stroke="#D9D9D9" stroke-width="3"/>
<path d="M699.85 195.1C701.826 195.1 703.721 194.315 705.118 192.918C706.515 191.521 707.3 189.626 707.3 187.65V75.9H647.7C645.724 75.9 643.829 76.6849 642.432 78.0821C641.035 79.4792 640.25 81.3741 640.25 83.35V165.3H625.35V83.35C625.35 77.4224 627.705 71.7376 631.896 67.5462C636.088 63.3547 641.772 61 647.7 61H729.65C735.578 61 741.262 63.3547 745.454 67.5462C749.645 71.7376 752 77.4224 752 83.35V90.8H737.1V83.35C737.1 81.3741 736.315 79.4792 734.918 78.0821C733.521 76.6849 731.626 75.9 729.65 75.9C727.674 75.9 725.779 76.6849 724.382 78.0821C722.985 79.4792 722.2 81.3741 722.2 83.35V113.15V187.65C722.2 193.578 719.845 199.262 715.654 203.454C711.462 207.645 705.778 210 699.85 210H625.35C619.422 210 613.738 207.645 609.546 203.454C605.355 199.262 603 193.578 603 187.65V180.2H684.95C684.95 184.152 686.52 187.942 689.314 190.736C692.108 193.53 695.898 195.1 699.85 195.1ZM655.15 90.8H692.4V105.7H655.15V90.8ZM655.15 120.6H692.4V135.5H655.15V120.6ZM655.15 150.4H692.4V165.3H655.15V150.4Z" fill="#B4DDB8"/>
<path d="M1343.5 164C1343.5 253.751 1270.97 326.5 1181.5 326.5C1092.03 326.5 1019.5 253.751 1019.5 164C1019.5 74.2494 1092.03 1.5 1181.5 1.5C1270.97 1.5 1343.5 74.2494 1343.5 164Z" fill="#FCFCFC" stroke="#D9D9D9" stroke-width="3"/>
<path d="M589.501 74.4583L582.126 94.1249L562.459 101.5L582.126 108.875L589.501 128.542L596.876 108.875L616.542 101.5L596.876 94.1249L589.501 74.4583Z" fill="#FFF3B1"/>
<path d="M1248.31 156.469C1248.99 168.058 1243.65 179.198 1234.09 186.001L1239.88 197.141C1241.62 200.505 1241.84 204.468 1240.34 207.982C1238.91 211.496 1235.97 214.262 1232.36 215.458L1226.41 217.327C1225.13 217.776 1223.7 218 1222.35 218C1218.51 218 1214.89 216.28 1212.41 213.215L1196.45 194.524C1189.75 193.403 1183.43 190.562 1178.09 186.3C1174.32 187.422 1170.56 188.02 1166.8 188.02C1160.17 188.02 1153.55 186.001 1147.98 182.113C1143.99 183.31 1139.92 183.833 1135.78 183.758C1129.84 183.833 1123.97 182.637 1118.47 180.394C1107.71 175.609 1100.56 165.142 1100.18 153.404C1099.58 148.021 1100.48 142.563 1102.82 137.629C1100.63 132.022 1100.41 125.891 1102.29 120.209C1105.07 113.106 1110.34 107.2 1116.89 103.462C1121.26 90.8269 1133.53 82.3786 1147 83.2758C1159.04 72.0612 1177.48 70.865 1190.88 80.5095C1194.04 79.6871 1197.36 79.2385 1200.67 79.2385C1210.9 79.0142 1220.61 83.5001 1227.01 91.4998C1242.37 95.4623 1253.36 109.069 1253.96 124.919C1254.34 133.218 1252.08 141.367 1247.49 148.32C1248.01 151.012 1248.31 153.703 1248.31 156.469ZM1210.68 145.928C1214.97 146.451 1218.36 149.666 1218.36 153.927C1218.36 155.91 1217.56 157.812 1216.15 159.214C1214.74 160.616 1212.83 161.404 1210.83 161.404H1206.09C1203.68 168.133 1199.46 174.039 1193.89 178.525C1195.78 179.198 1197.73 179.571 1199.69 180.095C1238.3 179.571 1233.79 156.17 1233.79 155.797C1233.34 145.105 1224.3 136.732 1213.54 137.18C1211.54 137.18 1209.63 136.393 1208.22 134.991C1206.81 133.589 1206.01 131.687 1206.01 129.704C1206.01 127.721 1206.81 125.82 1208.22 124.417C1209.63 123.015 1211.54 122.228 1213.54 122.228C1222.8 122.452 1231.68 125.891 1238.6 131.947C1238.98 129.779 1239.21 127.536 1239.21 125.293C1238.75 116.022 1234.54 107.948 1217.6 106.378C1208.19 84.2477 1184.48 96.5089 1184.48 103.387C1184.26 105.107 1186.07 108.77 1186.37 108.994C1188.36 108.994 1190.28 109.782 1191.69 111.184C1193.1 112.586 1193.89 114.488 1193.89 116.471C1193.89 120.583 1190.51 123.947 1186.37 123.947C1182.38 123.798 1178.61 122.302 1175.6 119.76C1171.99 122.078 1167.85 123.499 1163.56 123.947C1159.27 124.321 1155.73 121.331 1155.51 117.218C1154.9 113.032 1157.99 109.368 1162.13 108.994C1163.33 108.845 1169.2 107.948 1169.2 103.238C1169.2 98.3033 1171.09 93.5932 1174.32 89.855C1167.4 87.9859 1159.95 90.4531 1152.42 99.4995C1138.57 97.3313 1132.92 99.2004 1128.78 113.779C1121.63 117.293 1117.87 119.76 1116.21 127.237C1124.34 125.592 1132.7 126.265 1140.45 129.106C1144.21 130.526 1146.32 134.713 1144.89 138.75C1143.46 142.638 1139.1 144.582 1135.18 143.162C1129.69 140.769 1123.52 140.62 1117.87 142.713C1115.46 144.732 1115.46 148.918 1115.46 152.208C1115.46 157.74 1118.25 162.899 1122.99 165.89C1126.98 167.908 1131.42 168.955 1135.86 168.88C1134.73 166.936 1133.75 164.918 1132.92 162.824C1131.49 158.787 1133.68 154.376 1137.74 152.956C1141.81 151.535 1146.25 153.703 1147.68 157.74C1150.69 166.263 1158.37 172.095 1167.4 173.067C1177.71 172.544 1186.89 166.488 1191.41 157.142C1193.14 146.825 1201.5 145.928 1210.68 145.928ZM1225.73 201.776L1221.07 192.057L1215.72 193.253L1223.25 202.599L1225.73 201.776ZM1190.73 137.405C1190.88 133.442 1187.87 130.078 1183.88 129.704C1178.54 129.405 1173.34 131.199 1169.36 134.713C1165.06 139.05 1162.81 145.031 1163.03 151.086C1163.03 153.069 1163.83 154.971 1165.24 156.373C1166.65 157.775 1168.56 158.563 1170.56 158.563C1174.85 158.563 1178.09 155.198 1178.09 151.086C1178.09 149.068 1178.61 147.049 1179.82 145.404C1180.72 144.657 1181.85 144.283 1183.05 144.283C1187.19 144.507 1190.73 141.442 1190.73 137.405Z" fill="#FFC5C5"/>
<ellipse cx="1071.5" cy="101" rx="13.5" ry="13" fill="#F7CFE0"/>
<circle cx="1283" cy="164" r="13" fill="#CFF4F7"/>
<ellipse cx="1224" cy="49.5" rx="10" ry="11.5" fill="#D2F7CF"/>
<path d="M603.191 255.104C602.884 257.736 601.91 259.77 600.269 261.206C598.64 262.63 596.469 263.342 593.758 263.342C590.818 263.342 588.46 262.288 586.683 260.18C584.917 258.072 584.034 255.253 584.034 251.721V249.328C584.034 247.015 584.444 244.982 585.264 243.227C586.096 241.472 587.269 240.128 588.785 239.194C590.3 238.248 592.055 237.775 594.048 237.775C596.692 237.775 598.811 238.516 600.406 239.997C602.001 241.467 602.929 243.506 603.191 246.115H599.893C599.608 244.133 598.987 242.697 598.03 241.809C597.085 240.92 595.757 240.476 594.048 240.476C591.952 240.476 590.306 241.25 589.109 242.8C587.924 244.349 587.332 246.554 587.332 249.414V251.823C587.332 254.523 587.896 256.671 589.024 258.266C590.152 259.861 591.73 260.659 593.758 260.659C595.581 260.659 596.976 260.249 597.945 259.428C598.925 258.597 599.574 257.155 599.893 255.104H603.191ZM614.864 263.342C612.357 263.342 610.318 262.521 608.746 260.881C607.173 259.229 606.387 257.024 606.387 254.267V253.686C606.387 251.852 606.735 250.217 607.43 248.781C608.136 247.334 609.116 246.206 610.369 245.397C611.634 244.577 613.001 244.167 614.471 244.167C616.875 244.167 618.743 244.959 620.076 246.542C621.409 248.126 622.076 250.393 622.076 253.344V254.66H609.549C609.594 256.483 610.124 257.958 611.138 259.086C612.164 260.203 613.462 260.761 615.035 260.761C616.151 260.761 617.097 260.533 617.872 260.078C618.646 259.622 619.324 259.018 619.905 258.266L621.836 259.77C620.287 262.151 617.963 263.342 614.864 263.342ZM614.471 246.765C613.195 246.765 612.124 247.232 611.258 248.166C610.392 249.089 609.856 250.388 609.651 252.062H618.914V251.823C618.823 250.217 618.39 248.975 617.615 248.098C616.84 247.209 615.792 246.765 614.471 246.765ZM634.688 247.346C634.209 247.266 633.691 247.226 633.133 247.226C631.059 247.226 629.652 248.109 628.912 249.875V263H625.75V244.509H628.826L628.877 246.645C629.914 244.993 631.384 244.167 633.287 244.167C633.902 244.167 634.369 244.247 634.688 244.406V247.346ZM642.754 240.031V244.509H646.207V246.953H642.754V258.42C642.754 259.16 642.908 259.719 643.216 260.095C643.523 260.459 644.048 260.642 644.788 260.642C645.153 260.642 645.654 260.573 646.292 260.437V263C645.46 263.228 644.651 263.342 643.865 263.342C642.452 263.342 641.387 262.915 640.669 262.06C639.952 261.206 639.593 259.992 639.593 258.42V246.953H636.226V244.509H639.593V240.031H642.754ZM653.35 263H650.188V244.509H653.35V263ZM649.932 239.604C649.932 239.091 650.086 238.658 650.394 238.305C650.713 237.952 651.18 237.775 651.795 237.775C652.41 237.775 652.877 237.952 653.196 238.305C653.515 238.658 653.675 239.091 653.675 239.604C653.675 240.117 653.515 240.544 653.196 240.886C652.877 241.228 652.41 241.398 651.795 241.398C651.18 241.398 650.713 241.228 650.394 240.886C650.086 240.544 649.932 240.117 649.932 239.604ZM659.485 263V246.953H656.563V244.509H659.485V242.937C659.485 240.874 660.072 239.268 661.246 238.117C662.431 236.966 664.1 236.391 666.253 236.391C667.529 236.391 669.141 236.739 671.089 237.434L670.56 240.1C669.135 239.53 667.78 239.245 666.492 239.245C665.136 239.245 664.157 239.553 663.553 240.168C662.96 240.772 662.664 241.683 662.664 242.902V244.509H666.441V246.953H662.664V263H659.485ZM672.662 263H669.483V244.509H672.662V263ZM685.223 260.761C686.351 260.761 687.336 260.419 688.179 259.736C689.022 259.052 689.489 258.198 689.581 257.172H692.571C692.514 258.232 692.15 259.24 691.478 260.197C690.805 261.154 689.905 261.918 688.777 262.487C687.661 263.057 686.476 263.342 685.223 263.342C682.705 263.342 680.7 262.504 679.207 260.83C677.726 259.143 676.985 256.842 676.985 253.925V253.396C676.985 251.595 677.316 249.995 677.977 248.593C678.637 247.192 679.583 246.104 680.813 245.329C682.055 244.554 683.519 244.167 685.206 244.167C687.279 244.167 689 244.788 690.367 246.03C691.745 247.272 692.48 248.884 692.571 250.866H689.581C689.489 249.67 689.034 248.69 688.213 247.927C687.404 247.152 686.402 246.765 685.206 246.765C683.599 246.765 682.352 247.346 681.463 248.508C680.586 249.659 680.147 251.328 680.147 253.515V254.113C680.147 256.244 680.586 257.884 681.463 259.035C682.34 260.186 683.593 260.761 685.223 260.761ZM707.542 263C707.36 262.635 707.212 261.986 707.098 261.052C705.628 262.578 703.873 263.342 701.834 263.342C700.011 263.342 698.513 262.829 697.339 261.804C696.177 260.767 695.596 259.457 695.596 257.873C695.596 255.948 696.325 254.455 697.784 253.396C699.253 252.325 701.316 251.789 703.97 251.789H707.046V250.336C707.046 249.231 706.716 248.354 706.055 247.705C705.394 247.044 704.42 246.713 703.133 246.713C702.005 246.713 701.059 246.998 700.296 247.568C699.533 248.138 699.151 248.827 699.151 249.636H695.972C695.972 248.713 696.297 247.824 696.946 246.97C697.607 246.104 698.496 245.42 699.612 244.919C700.74 244.418 701.976 244.167 703.321 244.167C705.451 244.167 707.12 244.702 708.328 245.773C709.536 246.833 710.162 248.297 710.208 250.166V258.676C710.208 260.374 710.424 261.724 710.857 262.727V263H707.542ZM702.295 260.59C703.287 260.59 704.227 260.334 705.115 259.821C706.004 259.309 706.648 258.642 707.046 257.822V254.028H704.568C700.695 254.028 698.758 255.161 698.758 257.429C698.758 258.42 699.088 259.195 699.749 259.753C700.41 260.311 701.259 260.59 702.295 260.59ZM719.454 240.031V244.509H722.906V246.953H719.454V258.42C719.454 259.16 719.607 259.719 719.915 260.095C720.223 260.459 720.747 260.642 721.487 260.642C721.852 260.642 722.353 260.573 722.991 260.437V263C722.16 263.228 721.351 263.342 720.564 263.342C719.152 263.342 718.086 262.915 717.369 262.06C716.651 261.206 716.292 259.992 716.292 258.42V246.953H712.925V244.509H716.292V240.031H719.454ZM734.288 263.342C731.781 263.342 729.742 262.521 728.169 260.881C726.597 259.229 725.811 257.024 725.811 254.267V253.686C725.811 251.852 726.159 250.217 726.854 248.781C727.56 247.334 728.54 246.206 729.793 245.397C731.058 244.577 732.425 244.167 733.895 244.167C736.299 244.167 738.167 244.959 739.5 246.542C740.833 248.126 741.5 250.393 741.5 253.344V254.66H728.973C729.018 256.483 729.548 257.958 730.562 259.086C731.587 260.203 732.886 260.761 734.458 260.761C735.575 260.761 736.521 260.533 737.295 260.078C738.07 259.622 738.748 259.018 739.329 258.266L741.26 259.77C739.711 262.151 737.387 263.342 734.288 263.342ZM733.895 246.765C732.618 246.765 731.548 247.232 730.682 248.166C729.816 249.089 729.28 250.388 729.075 252.062H738.338V251.823C738.247 250.217 737.814 248.975 737.039 248.098C736.264 247.209 735.216 246.765 733.895 246.765ZM755.94 258.095C755.94 257.241 755.616 256.58 754.966 256.113C754.328 255.634 753.206 255.224 751.6 254.882C750.005 254.541 748.734 254.13 747.789 253.652C746.854 253.173 746.159 252.604 745.704 251.943C745.259 251.282 745.037 250.496 745.037 249.584C745.037 248.069 745.675 246.787 746.951 245.739C748.239 244.691 749.879 244.167 751.873 244.167C753.969 244.167 755.667 244.708 756.966 245.791C758.276 246.873 758.931 248.257 758.931 249.943H755.752C755.752 249.077 755.382 248.331 754.642 247.705C753.912 247.078 752.99 246.765 751.873 246.765C750.722 246.765 749.822 247.015 749.173 247.517C748.523 248.018 748.199 248.673 748.199 249.482C748.199 250.245 748.501 250.821 749.104 251.208C749.708 251.595 750.796 251.966 752.369 252.319C753.952 252.672 755.234 253.094 756.214 253.583C757.194 254.073 757.917 254.666 758.384 255.361C758.863 256.044 759.102 256.882 759.102 257.873C759.102 259.525 758.441 260.852 757.12 261.855C755.798 262.846 754.083 263.342 751.976 263.342C750.494 263.342 749.184 263.08 748.045 262.556C746.906 262.032 746.011 261.302 745.362 260.368C744.724 259.423 744.405 258.403 744.405 257.309H747.566C747.623 258.369 748.045 259.212 748.831 259.838C749.629 260.454 750.677 260.761 751.976 260.761C753.172 260.761 754.129 260.522 754.847 260.043C755.576 259.554 755.94 258.904 755.94 258.095Z" fill="#808080"/>
<path d="M1111.21 251.43L1108.17 254.592V263H1104.89V238.117H1108.17V250.422L1119.23 238.117H1123.19L1113.4 249.106L1123.96 263H1120.03L1111.21 251.43ZM1128.92 244.509L1129.02 246.833C1130.43 245.056 1132.28 244.167 1134.56 244.167C1138.46 244.167 1140.44 246.372 1140.47 250.781V263H1137.31V250.764C1137.3 249.431 1136.99 248.445 1136.38 247.807C1135.79 247.169 1134.86 246.85 1133.6 246.85C1132.57 246.85 1131.67 247.124 1130.9 247.67C1130.12 248.217 1129.52 248.935 1129.09 249.824V263H1125.93V244.509H1128.92ZM1144.4 253.583C1144.4 251.772 1144.75 250.143 1145.46 248.696C1146.18 247.249 1147.17 246.132 1148.43 245.346C1149.71 244.56 1151.16 244.167 1152.79 244.167C1155.31 244.167 1157.34 245.039 1158.89 246.782C1160.45 248.525 1161.23 250.843 1161.23 253.737V253.959C1161.23 255.76 1160.89 257.377 1160.19 258.813C1159.51 260.237 1158.52 261.348 1157.23 262.146C1155.96 262.943 1154.49 263.342 1152.83 263.342C1150.32 263.342 1148.28 262.47 1146.72 260.727C1145.17 258.984 1144.4 256.677 1144.4 253.806V253.583ZM1147.58 253.959C1147.58 256.01 1148.05 257.657 1149 258.898C1149.95 260.14 1151.23 260.761 1152.83 260.761C1154.43 260.761 1155.71 260.135 1156.65 258.881C1157.6 257.617 1158.07 255.851 1158.07 253.583C1158.07 251.556 1157.59 249.915 1156.62 248.662C1155.66 247.397 1154.39 246.765 1152.79 246.765C1151.23 246.765 1149.97 247.386 1149.01 248.627C1148.06 249.869 1147.58 251.647 1147.58 253.959ZM1181.57 258.642L1185.12 244.509H1188.29L1182.9 263H1180.34L1175.85 248.986L1171.47 263H1168.91L1163.54 244.509H1166.69L1170.33 258.352L1174.63 244.509H1177.18L1181.57 258.642ZM1194.95 263H1191.79V236.75H1194.95V263ZM1207.7 263.342C1205.19 263.342 1203.15 262.521 1201.58 260.881C1200.01 259.229 1199.22 257.024 1199.22 254.267V253.686C1199.22 251.852 1199.57 250.217 1200.27 248.781C1200.97 247.334 1201.95 246.206 1203.21 245.397C1204.47 244.577 1205.84 244.167 1207.31 244.167C1209.71 244.167 1211.58 244.959 1212.91 246.542C1214.25 248.126 1214.91 250.393 1214.91 253.344V254.66H1202.39C1202.43 256.483 1202.96 257.958 1203.98 259.086C1205 260.203 1206.3 260.761 1207.87 260.761C1208.99 260.761 1209.93 260.533 1210.71 260.078C1211.48 259.622 1212.16 259.018 1212.74 258.266L1214.67 259.77C1213.12 262.151 1210.8 263.342 1207.7 263.342ZM1207.31 246.765C1206.03 246.765 1204.96 247.232 1204.09 248.166C1203.23 249.089 1202.69 250.388 1202.49 252.062H1211.75V251.823C1211.66 250.217 1211.23 248.975 1210.45 248.098C1209.68 247.209 1208.63 246.765 1207.31 246.765ZM1217.82 253.601C1217.82 250.764 1218.49 248.485 1219.83 246.765C1221.18 245.033 1222.94 244.167 1225.12 244.167C1227.28 244.167 1228.99 244.908 1230.26 246.389V236.75H1233.42V263H1230.52L1230.36 261.018C1229.1 262.567 1227.34 263.342 1225.08 263.342C1222.94 263.342 1221.19 262.465 1219.83 260.71C1218.49 258.955 1217.82 256.665 1217.82 253.84V253.601ZM1220.98 253.959C1220.98 256.056 1221.41 257.696 1222.28 258.881C1223.14 260.066 1224.34 260.659 1225.87 260.659C1227.87 260.659 1229.34 259.759 1230.26 257.958V249.465C1229.31 247.722 1227.86 246.85 1225.9 246.85C1224.35 246.85 1223.14 247.448 1222.28 248.645C1221.41 249.841 1220.98 251.612 1220.98 253.959ZM1237.59 253.601C1237.59 250.718 1238.26 248.428 1239.59 246.73C1240.92 245.021 1242.69 244.167 1244.89 244.167C1247.14 244.167 1248.9 244.965 1250.17 246.56L1250.32 244.509H1253.21V262.556C1253.21 264.948 1252.5 266.834 1251.07 268.212C1249.66 269.591 1247.76 270.28 1245.37 270.28C1244.03 270.28 1242.73 269.995 1241.45 269.426C1240.18 268.856 1239.2 268.076 1238.53 267.084L1240.17 265.188C1241.53 266.862 1243.18 267.7 1245.14 267.7C1246.68 267.7 1247.88 267.267 1248.73 266.401C1249.6 265.535 1250.03 264.316 1250.03 262.744V261.154C1248.77 262.613 1247.04 263.342 1244.85 263.342C1242.69 263.342 1240.93 262.47 1239.59 260.727C1238.26 258.984 1237.59 256.608 1237.59 253.601ZM1240.77 253.959C1240.77 256.044 1241.2 257.685 1242.05 258.881C1242.91 260.066 1244.1 260.659 1245.64 260.659C1247.63 260.659 1249.1 259.753 1250.03 257.941V249.499C1249.06 247.733 1247.61 246.85 1245.67 246.85C1244.14 246.85 1242.93 247.448 1242.07 248.645C1241.2 249.841 1240.77 251.612 1240.77 253.959ZM1265.67 263.342C1263.16 263.342 1261.12 262.521 1259.55 260.881C1257.98 259.229 1257.19 257.024 1257.19 254.267V253.686C1257.19 251.852 1257.54 250.217 1258.24 248.781C1258.94 247.334 1259.92 246.206 1261.17 245.397C1262.44 244.577 1263.81 244.167 1265.28 244.167C1267.68 244.167 1269.55 244.959 1270.88 246.542C1272.21 248.126 1272.88 250.393 1272.88 253.344V254.66H1260.35C1260.4 256.483 1260.93 257.958 1261.94 259.086C1262.97 260.203 1264.27 260.761 1265.84 260.761C1266.96 260.761 1267.9 260.533 1268.68 260.078C1269.45 259.622 1270.13 259.018 1270.71 258.266L1272.64 259.77C1271.09 262.151 1268.77 263.342 1265.67 263.342ZM1265.28 246.765C1264 246.765 1262.93 247.232 1262.06 248.166C1261.2 249.089 1260.66 250.388 1260.46 252.062H1269.72V251.823C1269.63 250.217 1269.2 248.975 1268.42 248.098C1267.65 247.209 1266.6 246.765 1265.28 246.765Z" fill="#808080"/>
<rect x="400.984" y="126.304" width="13.071" height="75.6253" fill="#DCDCDC"/>
<circle cx="407.52" cy="127.472" r="6.53552" fill="#DCDCDC"/>
<circle cx="407.52" cy="200.063" r="6.53552" fill="#DCDCDC"/>
<rect x="444.865" y="156.998" width="13.071" height="75.6253" transform="rotate(90 444.865 156.998)" fill="#DCDCDC"/>
<circle cx="443.699" cy="163.534" r="6.53552" transform="rotate(90 443.699 163.534)" fill="#DCDCDC"/>
<circle cx="371.107" cy="163.534" r="6.53552" transform="rotate(90 371.107 163.534)" fill="#DCDCDC"/>
<rect x="963.67" y="146.255" width="13.1709" height="76.2032" transform="rotate(90 963.67 146.255)" fill="#DCDCDC"/>
<circle cx="962.495" cy="152.84" r="6.58546" transform="rotate(90 962.495 152.84)" fill="#DCDCDC"/>
<circle cx="889.348" cy="152.84" r="6.58546" transform="rotate(90 889.348 152.84)" fill="#DCDCDC"/>
<rect x="963.67" y="181.299" width="13.1709" height="76.2032" transform="rotate(90 963.67 181.299)" fill="#DCDCDC"/>
<circle cx="962.495" cy="187.884" r="6.58546" transform="rotate(90 962.495 187.884)" fill="#DCDCDC"/>
<circle cx="889.348" cy="187.884" r="6.58546" transform="rotate(90 889.348 187.884)" fill="#DCDCDC"/>
<path d="M325.5 164C325.5 253.751 252.966 326.5 163.5 326.5C74.0342 326.5 1.5 253.751 1.5 164C1.5 74.2494 74.0342 1.5 163.5 1.5C252.966 1.5 325.5 74.2494 325.5 164Z" fill="#FCFCFC" stroke="#E1DFDF" stroke-width="3"/>
<path d="M160.5 61L64 113.667L99.0909 132.802V185.469L160.5 219L221.909 185.469V132.802L239.455 123.234V183.889H257V113.667L160.5 61ZM220.33 113.667L160.5 146.32L100.67 113.667L160.5 81.0133L220.33 113.667ZM204.364 175.111L160.5 198.987L116.636 175.111V142.37L160.5 166.333L204.364 142.37V175.111Z" fill="#B7CFE1"/>
<path d="M110.888 263V238.117H117.912C120.077 238.117 121.991 238.596 123.654 239.553C125.318 240.51 126.599 241.871 127.5 243.637C128.411 245.403 128.872 247.431 128.884 249.721V251.311C128.884 253.658 128.428 255.714 127.517 257.48C126.617 259.246 125.323 260.602 123.637 261.547C121.962 262.493 120.008 262.977 117.775 263H110.888ZM114.169 240.817V260.317H117.622C120.151 260.317 122.116 259.531 123.518 257.958C124.93 256.386 125.637 254.147 125.637 251.242V249.79C125.637 246.964 124.97 244.771 123.637 243.21C122.316 241.638 120.436 240.84 117.998 240.817H114.169ZM141.035 263.342C138.528 263.342 136.489 262.521 134.917 260.881C133.344 259.229 132.558 257.024 132.558 254.267V253.686C132.558 251.852 132.906 250.217 133.601 248.781C134.307 247.334 135.287 246.206 136.54 245.397C137.805 244.577 139.172 244.167 140.642 244.167C143.046 244.167 144.914 244.959 146.247 246.542C147.58 248.126 148.247 250.393 148.247 253.344V254.66H135.72C135.765 256.483 136.295 257.958 137.309 259.086C138.334 260.203 139.633 260.761 141.206 260.761C142.322 260.761 143.268 260.533 144.042 260.078C144.817 259.622 145.495 259.018 146.076 258.266L148.007 259.77C146.458 262.151 144.134 263.342 141.035 263.342ZM140.642 246.765C139.366 246.765 138.295 247.232 137.429 248.166C136.563 249.089 136.027 250.388 135.822 252.062H145.085V251.823C144.994 250.217 144.561 248.975 143.786 248.098C143.011 247.209 141.963 246.765 140.642 246.765ZM151.169 253.601C151.169 250.718 151.835 248.428 153.168 246.73C154.501 245.021 156.267 244.167 158.466 244.167C160.722 244.167 162.482 244.965 163.747 246.56L163.901 244.509H166.789V262.556C166.789 264.948 166.077 266.834 164.653 268.212C163.24 269.591 161.337 270.28 158.945 270.28C157.612 270.28 156.307 269.995 155.031 269.426C153.755 268.856 152.781 268.076 152.109 267.084L153.75 265.188C155.105 266.862 156.763 267.7 158.723 267.7C160.261 267.7 161.457 267.267 162.312 266.401C163.177 265.535 163.61 264.316 163.61 262.744V261.154C162.346 262.613 160.62 263.342 158.432 263.342C156.267 263.342 154.513 262.47 153.168 260.727C151.835 258.984 151.169 256.608 151.169 253.601ZM154.348 253.959C154.348 256.044 154.775 257.685 155.629 258.881C156.484 260.066 157.68 260.659 159.218 260.659C161.212 260.659 162.676 259.753 163.61 257.941V249.499C162.642 247.733 161.189 246.85 159.252 246.85C157.714 246.85 156.512 247.448 155.646 248.645C154.781 249.841 154.348 251.612 154.348 253.959ZM180.512 247.346C180.034 247.266 179.515 247.226 178.957 247.226C176.883 247.226 175.476 248.109 174.736 249.875V263H171.574V244.509H174.65L174.702 246.645C175.738 244.993 177.208 244.167 179.111 244.167C179.726 244.167 180.193 244.247 180.512 244.406V247.346ZM190.766 263.342C188.26 263.342 186.22 262.521 184.648 260.881C183.076 259.229 182.29 257.024 182.29 254.267V253.686C182.29 251.852 182.637 250.217 183.332 248.781C184.038 247.334 185.018 246.206 186.271 245.397C187.536 244.577 188.903 244.167 190.373 244.167C192.777 244.167 194.646 244.959 195.979 246.542C197.312 248.126 197.978 250.393 197.978 253.344V254.66H185.451C185.497 256.483 186.027 257.958 187.041 259.086C188.066 260.203 189.365 260.761 190.937 260.761C192.054 260.761 192.999 260.533 193.774 260.078C194.549 259.622 195.227 259.018 195.808 258.266L197.739 259.77C196.189 262.151 193.865 263.342 190.766 263.342ZM190.373 246.765C189.097 246.765 188.026 247.232 187.16 248.166C186.294 249.089 185.759 250.388 185.554 252.062H194.816V251.823C194.725 250.217 194.292 248.975 193.518 248.098C192.743 247.209 191.695 246.765 190.373 246.765ZM209.326 263.342C206.819 263.342 204.78 262.521 203.208 260.881C201.635 259.229 200.849 257.024 200.849 254.267V253.686C200.849 251.852 201.197 250.217 201.892 248.781C202.598 247.334 203.578 246.206 204.831 245.397C206.096 244.577 207.463 244.167 208.933 244.167C211.337 244.167 213.205 244.959 214.538 246.542C215.871 248.126 216.538 250.393 216.538 253.344V254.66H204.011C204.056 256.483 204.586 257.958 205.6 259.086C206.625 260.203 207.924 260.761 209.497 260.761C210.613 260.761 211.559 260.533 212.333 260.078C213.108 259.622 213.786 259.018 214.367 258.266L216.298 259.77C214.749 262.151 212.425 263.342 209.326 263.342ZM208.933 246.765C207.657 246.765 206.586 247.232 205.72 248.166C204.854 249.089 204.318 250.388 204.113 252.062H213.376V251.823C213.285 250.217 212.852 248.975 212.077 248.098C211.302 247.209 210.254 246.765 208.933 246.765Z" fill="#808080"/>
</svg>
