<svg width="1345" height="328" viewBox="0 0 1345 328" fill="none" xmlns="http://www.w3.org/2000/svg">
<path d="M325.5 164C325.5 253.751 252.966 326.5 163.5 326.5C74.0342 326.5 1.5 253.751 1.5 164C1.5 74.2494 74.0342 1.5 163.5 1.5C252.966 1.5 325.5 74.2494 325.5 164Z" fill="#F9F9F9" stroke="#D9D9D9" stroke-width="3"/>
<path d="M163.5 67L67 119.667L102.091 138.802V191.469L163.5 225L224.909 191.469V138.802L242.455 129.234V189.889H260V119.667L163.5 67ZM223.33 119.667L163.5 152.32L103.67 119.667L163.5 87.0133L223.33 119.667ZM207.364 181.111L163.5 204.987L119.636 181.111V148.37L163.5 172.333L207.364 148.37V181.111Z" fill="#B7CFE1"/>
<path d="M834.5 164C834.5 253.755 762.185 326.5 673 326.5C583.815 326.5 511.5 253.755 511.5 164C511.5 74.2451 583.815 1.5 673 1.5C762.185 1.5 834.5 74.2451 834.5 164Z" fill="#FCFCFC" stroke="#D9D9D9" stroke-width="3"/>
<path d="M699.85 195.1C701.826 195.1 703.721 194.315 705.118 192.918C706.515 191.521 707.3 189.626 707.3 187.65V75.9H647.7C645.724 75.9 643.829 76.6849 642.432 78.0821C641.035 79.4792 640.25 81.3741 640.25 83.35V165.3H625.35V83.35C625.35 77.4224 627.705 71.7376 631.896 67.5462C636.088 63.3547 641.772 61 647.7 61H729.65C735.578 61 741.262 63.3547 745.454 67.5462C749.645 71.7376 752 77.4224 752 83.35V90.8H737.1V83.35C737.1 81.3741 736.315 79.4792 734.918 78.0821C733.521 76.6849 731.626 75.9 729.65 75.9C727.674 75.9 725.779 76.6849 724.382 78.0821C722.985 79.4792 722.2 81.3741 722.2 83.35V113.15V187.65C722.2 193.578 719.845 199.262 715.654 203.454C711.462 207.645 705.778 210 699.85 210H625.35C619.422 210 613.738 207.645 609.546 203.454C605.355 199.262 603 193.578 603 187.65V180.2H684.95C684.95 184.152 686.52 187.942 689.314 190.736C692.108 193.53 695.898 195.1 699.85 195.1ZM655.15 90.8H692.4V105.7H655.15V90.8ZM655.15 120.6H692.4V135.5H655.15V120.6ZM655.15 150.4H692.4V165.3H655.15V150.4Z" fill="#B4DDB8"/>
<path d="M1343.5 164C1343.5 253.751 1270.97 326.5 1181.5 326.5C1092.03 326.5 1019.5 253.751 1019.5 164C1019.5 74.2494 1092.03 1.5 1181.5 1.5C1270.97 1.5 1343.5 74.2494 1343.5 164Z" fill="#FCFCFC" stroke="#D9D9D9" stroke-width="3"/>
<path d="M589.501 74.4583L582.126 94.1249L562.459 101.5L582.126 108.875L589.501 128.542L596.876 108.875L616.542 101.5L596.876 94.1249L589.501 74.4583Z" fill="#FFF3B1"/>
<path d="M1248.31 156.469C1248.99 168.058 1243.65 179.198 1234.09 186.001L1239.88 197.141C1241.62 200.505 1241.84 204.468 1240.34 207.982C1238.91 211.496 1235.97 214.262 1232.36 215.458L1226.41 217.327C1225.13 217.776 1223.7 218 1222.35 218C1218.51 218 1214.89 216.28 1212.41 213.215L1196.45 194.524C1189.75 193.403 1183.43 190.562 1178.09 186.3C1174.32 187.422 1170.56 188.02 1166.8 188.02C1160.17 188.02 1153.55 186.001 1147.98 182.113C1143.99 183.31 1139.92 183.833 1135.78 183.758C1129.84 183.833 1123.97 182.637 1118.47 180.394C1107.71 175.609 1100.56 165.142 1100.18 153.404C1099.58 148.021 1100.48 142.563 1102.82 137.629C1100.63 132.022 1100.41 125.891 1102.29 120.209C1105.07 113.106 1110.34 107.2 1116.89 103.462C1121.26 90.8269 1133.53 82.3786 1147 83.2758C1159.04 72.0612 1177.48 70.865 1190.88 80.5095C1194.04 79.6871 1197.36 79.2385 1200.67 79.2385C1210.9 79.0142 1220.61 83.5001 1227.01 91.4998C1242.37 95.4623 1253.36 109.069 1253.96 124.919C1254.34 133.218 1252.08 141.367 1247.49 148.32C1248.01 151.012 1248.31 153.703 1248.31 156.469ZM1210.68 145.928C1214.97 146.451 1218.36 149.666 1218.36 153.927C1218.36 155.91 1217.56 157.812 1216.15 159.214C1214.74 160.616 1212.83 161.404 1210.83 161.404H1206.09C1203.68 168.133 1199.46 174.039 1193.89 178.525C1195.78 179.198 1197.73 179.571 1199.69 180.095C1238.3 179.571 1233.79 156.17 1233.79 155.797C1233.34 145.105 1224.3 136.732 1213.54 137.18C1211.54 137.18 1209.63 136.393 1208.22 134.991C1206.81 133.589 1206.01 131.687 1206.01 129.704C1206.01 127.721 1206.81 125.82 1208.22 124.417C1209.63 123.015 1211.54 122.228 1213.54 122.228C1222.8 122.452 1231.68 125.891 1238.6 131.947C1238.98 129.779 1239.21 127.536 1239.21 125.293C1238.75 116.022 1234.54 107.948 1217.6 106.378C1208.19 84.2477 1184.48 96.5089 1184.48 103.387C1184.26 105.107 1186.07 108.77 1186.37 108.994C1188.36 108.994 1190.28 109.782 1191.69 111.184C1193.1 112.586 1193.89 114.488 1193.89 116.471C1193.89 120.583 1190.51 123.947 1186.37 123.947C1182.38 123.798 1178.61 122.302 1175.6 119.76C1171.99 122.078 1167.85 123.499 1163.56 123.947C1159.27 124.321 1155.73 121.33 1155.51 117.218C1154.9 113.032 1157.99 109.368 1162.13 108.994C1163.33 108.845 1169.2 107.948 1169.2 103.238C1169.2 98.3033 1171.09 93.5932 1174.32 89.855C1167.4 87.9859 1159.95 90.4531 1152.42 99.4995C1138.57 97.3313 1132.92 99.2004 1128.78 113.779C1121.63 117.293 1117.87 119.76 1116.21 127.237C1124.34 125.592 1132.7 126.265 1140.45 129.106C1144.21 130.526 1146.32 134.713 1144.89 138.75C1143.46 142.638 1139.1 144.582 1135.18 143.162C1129.69 140.769 1123.52 140.62 1117.87 142.713C1115.46 144.732 1115.46 148.918 1115.46 152.208C1115.46 157.74 1118.25 162.899 1122.99 165.89C1126.98 167.908 1131.42 168.955 1135.86 168.88C1134.73 166.936 1133.75 164.918 1132.92 162.824C1131.49 158.787 1133.68 154.376 1137.74 152.956C1141.81 151.535 1146.25 153.703 1147.68 157.74C1150.69 166.264 1158.37 172.095 1167.4 173.067C1177.71 172.544 1186.89 166.488 1191.41 157.142C1193.14 146.825 1201.5 145.928 1210.68 145.928ZM1225.73 201.776L1221.07 192.057L1215.72 193.253L1223.25 202.599L1225.73 201.776ZM1190.73 137.405C1190.88 133.442 1187.87 130.078 1183.88 129.704C1178.54 129.405 1173.34 131.199 1169.36 134.713C1165.06 139.05 1162.81 145.031 1163.03 151.086C1163.03 153.069 1163.83 154.971 1165.24 156.373C1166.65 157.775 1168.56 158.563 1170.56 158.563C1174.85 158.563 1178.09 155.198 1178.09 151.086C1178.09 149.068 1178.61 147.049 1179.82 145.404C1180.72 144.657 1181.85 144.283 1183.05 144.283C1187.19 144.507 1190.73 141.442 1190.73 137.405Z" fill="#FFC5C5"/>
<ellipse cx="1071.5" cy="101" rx="13.5" ry="13" fill="#F7CFE0"/>
<circle cx="1283" cy="164" r="13" fill="#CFF4F7"/>
<ellipse cx="1224" cy="49.5" rx="10" ry="11.5" fill="#D2F7CF"/>
<path d="M592.22 251.909C589.406 251.1 587.355 250.109 586.067 248.935C584.791 247.75 584.153 246.292 584.153 244.56C584.153 242.6 584.934 240.983 586.495 239.707C588.067 238.419 590.106 237.775 592.613 237.775C594.322 237.775 595.843 238.106 597.176 238.767C598.52 239.427 599.557 240.339 600.286 241.501C601.027 242.663 601.397 243.933 601.397 245.312H598.099C598.099 243.808 597.62 242.629 596.663 241.774C595.706 240.909 594.356 240.476 592.613 240.476C590.995 240.476 589.73 240.834 588.819 241.552C587.919 242.259 587.469 243.244 587.469 244.509C587.469 245.523 587.896 246.383 588.75 247.089C589.616 247.784 591.08 248.422 593.143 249.003C595.216 249.584 596.834 250.228 597.996 250.935C599.17 251.63 600.035 252.444 600.594 253.378C601.163 254.313 601.448 255.412 601.448 256.677C601.448 258.693 600.662 260.311 599.09 261.53C597.518 262.738 595.416 263.342 592.784 263.342C591.075 263.342 589.48 263.017 587.999 262.368C586.517 261.707 585.372 260.807 584.563 259.667C583.766 258.528 583.367 257.235 583.367 255.788H586.666C586.666 257.292 587.218 258.483 588.323 259.36C589.44 260.226 590.927 260.659 592.784 260.659C594.515 260.659 595.843 260.306 596.766 259.599C597.688 258.893 598.15 257.93 598.15 256.711C598.15 255.492 597.723 254.552 596.868 253.891C596.014 253.219 594.464 252.558 592.22 251.909ZM612.847 263.342C610.341 263.342 608.301 262.521 606.729 260.881C605.157 259.229 604.371 257.024 604.371 254.267V253.686C604.371 251.852 604.718 250.217 605.413 248.781C606.119 247.334 607.099 246.206 608.353 245.397C609.617 244.577 610.984 244.167 612.454 244.167C614.858 244.167 616.727 244.959 618.06 246.542C619.393 248.126 620.059 250.393 620.059 253.344V254.66H607.532C607.578 256.483 608.108 257.958 609.122 259.086C610.147 260.203 611.446 260.761 613.018 260.761C614.135 260.761 615.08 260.533 615.855 260.078C616.63 259.622 617.308 259.018 617.889 258.266L619.82 259.77C618.27 262.151 615.946 263.342 612.847 263.342ZM612.454 246.765C611.178 246.765 610.107 247.232 609.241 248.166C608.375 249.089 607.84 250.388 607.635 252.062H616.897V251.823C616.806 250.217 616.373 248.975 615.599 248.098C614.824 247.209 613.776 246.765 612.454 246.765ZM632.671 247.346C632.193 247.266 631.674 247.226 631.116 247.226C629.043 247.226 627.636 248.109 626.895 249.875V263H623.733V244.509H626.81L626.861 246.645C627.898 244.993 629.367 244.167 631.27 244.167C631.885 244.167 632.352 244.247 632.671 244.406V247.346ZM640.738 240.031V244.509H644.19V246.953H640.738V258.42C640.738 259.16 640.892 259.719 641.199 260.095C641.507 260.459 642.031 260.642 642.771 260.642C643.136 260.642 643.637 260.573 644.275 260.437V263C643.444 263.228 642.635 263.342 641.849 263.342C640.436 263.342 639.371 262.915 638.653 262.06C637.935 261.206 637.576 259.992 637.576 258.42V246.953H634.209V244.509H637.576V240.031H640.738ZM651.333 263H648.172V244.509H651.333V263ZM647.916 239.604C647.916 239.091 648.069 238.658 648.377 238.305C648.696 237.952 649.163 237.775 649.778 237.775C650.394 237.775 650.861 237.952 651.18 238.305C651.499 238.658 651.658 239.091 651.658 239.604C651.658 240.117 651.499 240.544 651.18 240.886C650.861 241.228 650.394 241.398 649.778 241.398C649.163 241.398 648.696 241.228 648.377 240.886C648.069 240.544 647.916 240.117 647.916 239.604ZM657.469 263V246.953H654.546V244.509H657.469V242.937C657.469 240.874 658.056 239.268 659.229 238.117C660.414 236.966 662.083 236.391 664.236 236.391C665.512 236.391 667.125 236.739 669.073 237.434L668.543 240.1C667.119 239.53 665.763 239.245 664.476 239.245C663.12 239.245 662.14 239.553 661.536 240.168C660.944 240.772 660.647 241.683 660.647 242.902V244.509H664.424V246.953H660.647V263H657.469ZM670.645 263H667.466V244.509H670.645V263ZM683.206 260.761C684.334 260.761 685.319 260.419 686.163 259.736C687.006 259.052 687.473 258.198 687.564 257.172H690.555C690.498 258.232 690.133 259.24 689.461 260.197C688.789 261.154 687.889 261.918 686.761 262.487C685.644 263.057 684.459 263.342 683.206 263.342C680.688 263.342 678.683 262.504 677.19 260.83C675.709 259.143 674.969 256.842 674.969 253.925V253.396C674.969 251.595 675.299 249.995 675.96 248.593C676.621 247.192 677.566 246.104 678.797 245.329C680.039 244.554 681.503 244.167 683.189 244.167C685.263 244.167 686.983 244.788 688.35 246.03C689.729 247.272 690.464 248.884 690.555 250.866H687.564C687.473 249.67 687.017 248.69 686.197 247.927C685.388 247.152 684.385 246.765 683.189 246.765C681.583 246.765 680.335 247.346 679.446 248.508C678.569 249.659 678.13 251.328 678.13 253.515V254.113C678.13 256.244 678.569 257.884 679.446 259.035C680.324 260.186 681.577 260.761 683.206 260.761ZM705.525 263C705.343 262.635 705.195 261.986 705.081 261.052C703.611 262.578 701.857 263.342 699.817 263.342C697.994 263.342 696.496 262.829 695.323 261.804C694.161 260.767 693.58 259.457 693.58 257.873C693.58 255.948 694.309 254.455 695.767 253.396C697.237 252.325 699.299 251.789 701.954 251.789H705.03V250.336C705.03 249.231 704.699 248.354 704.039 247.705C703.378 247.044 702.404 246.713 701.116 246.713C699.988 246.713 699.043 246.998 698.279 247.568C697.516 248.138 697.134 248.827 697.134 249.636H693.956C693.956 248.713 694.28 247.824 694.93 246.97C695.59 246.104 696.479 245.42 697.596 244.919C698.724 244.418 699.96 244.167 701.304 244.167C703.435 244.167 705.104 244.702 706.312 245.773C707.519 246.833 708.146 248.297 708.191 250.166V258.676C708.191 260.374 708.408 261.724 708.841 262.727V263H705.525ZM700.279 260.59C701.27 260.59 702.21 260.334 703.099 259.821C703.987 259.309 704.631 258.642 705.03 257.822V254.028H702.552C698.678 254.028 696.741 255.161 696.741 257.429C696.741 258.42 697.072 259.195 697.732 259.753C698.393 260.311 699.242 260.59 700.279 260.59ZM717.437 240.031V244.509H720.889V246.953H717.437V258.42C717.437 259.16 717.591 259.719 717.898 260.095C718.206 260.459 718.73 260.642 719.471 260.642C719.835 260.642 720.337 260.573 720.975 260.437V263C720.143 263.228 719.334 263.342 718.548 263.342C717.135 263.342 716.07 262.915 715.352 262.06C714.634 261.206 714.275 259.992 714.275 258.42V246.953H710.909V244.509H714.275V240.031H717.437ZM732.271 263.342C729.764 263.342 727.725 262.521 726.153 260.881C724.581 259.229 723.794 257.024 723.794 254.267V253.686C723.794 251.852 724.142 250.217 724.837 248.781C725.543 247.334 726.523 246.206 727.776 245.397C729.041 244.577 730.408 244.167 731.878 244.167C734.282 244.167 736.15 244.959 737.483 246.542C738.816 248.126 739.483 250.393 739.483 253.344V254.66H726.956C727.002 256.483 727.531 257.958 728.545 259.086C729.571 260.203 730.87 260.761 732.442 260.761C733.558 260.761 734.504 260.533 735.279 260.078C736.054 259.622 736.731 259.018 737.312 258.266L739.244 259.77C737.694 262.151 735.37 263.342 732.271 263.342ZM731.878 246.765C730.602 246.765 729.531 247.232 728.665 248.166C727.799 249.089 727.264 250.388 727.059 252.062H736.321V251.823C736.23 250.217 735.797 248.975 735.022 248.098C734.248 247.209 733.2 246.765 731.878 246.765ZM753.924 258.095C753.924 257.241 753.599 256.58 752.95 256.113C752.312 255.634 751.189 255.224 749.583 254.882C747.988 254.541 746.718 254.13 745.772 253.652C744.838 253.173 744.143 252.604 743.687 251.943C743.243 251.282 743.021 250.496 743.021 249.584C743.021 248.069 743.659 246.787 744.935 245.739C746.222 244.691 747.863 244.167 749.856 244.167C751.953 244.167 753.65 244.708 754.949 245.791C756.259 246.873 756.915 248.257 756.915 249.943H753.736C753.736 249.077 753.366 248.331 752.625 247.705C751.896 247.078 750.973 246.765 749.856 246.765C748.706 246.765 747.806 247.015 747.156 247.517C746.507 248.018 746.182 248.673 746.182 249.482C746.182 250.245 746.484 250.821 747.088 251.208C747.692 251.595 748.78 251.966 750.352 252.319C751.936 252.672 753.217 253.094 754.197 253.583C755.177 254.073 755.901 254.666 756.368 255.361C756.846 256.044 757.085 256.882 757.085 257.873C757.085 259.525 756.425 260.852 755.103 261.855C753.781 262.846 752.067 263.342 749.959 263.342C748.478 263.342 747.168 263.08 746.028 262.556C744.889 262.032 743.995 261.302 743.345 260.368C742.707 259.423 742.388 258.403 742.388 257.309H745.55C745.607 258.369 746.028 259.212 746.814 259.838C747.612 260.454 748.66 260.761 749.959 260.761C751.155 260.761 752.112 260.522 752.83 260.043C753.559 259.554 753.924 258.904 753.924 258.095Z" fill="#808080"/>
<path d="M1111.21 251.43L1108.17 254.592V263H1104.89V238.117H1108.17V250.422L1119.23 238.117H1123.19L1113.4 249.106L1123.96 263H1120.03L1111.21 251.43ZM1128.92 244.509L1129.02 246.833C1130.43 245.056 1132.28 244.167 1134.56 244.167C1138.46 244.167 1140.44 246.372 1140.47 250.781V263H1137.31V250.764C1137.3 249.431 1136.99 248.445 1136.38 247.807C1135.79 247.169 1134.86 246.85 1133.6 246.85C1132.57 246.85 1131.67 247.124 1130.9 247.67C1130.12 248.217 1129.52 248.935 1129.09 249.824V263H1125.93V244.509H1128.92ZM1144.4 253.583C1144.4 251.772 1144.75 250.143 1145.46 248.696C1146.18 247.249 1147.17 246.132 1148.43 245.346C1149.71 244.56 1151.16 244.167 1152.79 244.167C1155.31 244.167 1157.34 245.039 1158.89 246.782C1160.45 248.525 1161.23 250.843 1161.23 253.737V253.959C1161.23 255.76 1160.89 257.377 1160.19 258.813C1159.51 260.237 1158.52 261.348 1157.23 262.146C1155.96 262.943 1154.49 263.342 1152.83 263.342C1150.32 263.342 1148.28 262.47 1146.72 260.727C1145.17 258.984 1144.4 256.677 1144.4 253.806V253.583ZM1147.58 253.959C1147.58 256.01 1148.05 257.657 1149 258.898C1149.95 260.14 1151.23 260.761 1152.83 260.761C1154.43 260.761 1155.71 260.135 1156.65 258.881C1157.6 257.617 1158.07 255.851 1158.07 253.583C1158.07 251.556 1157.59 249.915 1156.62 248.662C1155.66 247.397 1154.39 246.765 1152.79 246.765C1151.23 246.765 1149.97 247.386 1149.01 248.627C1148.06 249.869 1147.58 251.647 1147.58 253.959ZM1181.57 258.642L1185.12 244.509H1188.29L1182.9 263H1180.34L1175.85 248.986L1171.47 263H1168.91L1163.54 244.509H1166.69L1170.33 258.352L1174.63 244.509H1177.18L1181.57 258.642ZM1194.95 263H1191.79V236.75H1194.95V263ZM1207.7 263.342C1205.19 263.342 1203.15 262.521 1201.58 260.881C1200.01 259.229 1199.22 257.024 1199.22 254.267V253.686C1199.22 251.852 1199.57 250.217 1200.27 248.781C1200.97 247.334 1201.95 246.206 1203.21 245.397C1204.47 244.577 1205.84 244.167 1207.31 244.167C1209.71 244.167 1211.58 244.959 1212.91 246.542C1214.25 248.126 1214.91 250.393 1214.91 253.344V254.66H1202.39C1202.43 256.483 1202.96 257.958 1203.98 259.086C1205 260.203 1206.3 260.761 1207.87 260.761C1208.99 260.761 1209.93 260.533 1210.71 260.078C1211.48 259.622 1212.16 259.018 1212.74 258.266L1214.67 259.77C1213.12 262.151 1210.8 263.342 1207.7 263.342ZM1207.31 246.765C1206.03 246.765 1204.96 247.232 1204.09 248.166C1203.23 249.089 1202.69 250.388 1202.49 252.062H1211.75V251.823C1211.66 250.217 1211.23 248.975 1210.45 248.098C1209.68 247.209 1208.63 246.765 1207.31 246.765ZM1217.82 253.601C1217.82 250.764 1218.49 248.485 1219.83 246.765C1221.18 245.033 1222.94 244.167 1225.12 244.167C1227.28 244.167 1228.99 244.908 1230.26 246.389V236.75H1233.42V263H1230.52L1230.36 261.018C1229.1 262.567 1227.34 263.342 1225.08 263.342C1222.94 263.342 1221.19 262.465 1219.83 260.71C1218.49 258.955 1217.82 256.665 1217.82 253.84V253.601ZM1220.98 253.959C1220.98 256.056 1221.41 257.696 1222.28 258.881C1223.14 260.066 1224.34 260.659 1225.87 260.659C1227.87 260.659 1229.34 259.759 1230.26 257.958V249.465C1229.31 247.722 1227.86 246.85 1225.9 246.85C1224.35 246.85 1223.14 247.448 1222.28 248.645C1221.41 249.841 1220.98 251.612 1220.98 253.959ZM1237.59 253.601C1237.59 250.718 1238.26 248.428 1239.59 246.73C1240.92 245.021 1242.69 244.167 1244.89 244.167C1247.14 244.167 1248.9 244.965 1250.17 246.56L1250.32 244.509H1253.21V262.556C1253.21 264.948 1252.5 266.834 1251.07 268.212C1249.66 269.591 1247.76 270.28 1245.37 270.28C1244.03 270.28 1242.73 269.995 1241.45 269.426C1240.18 268.856 1239.2 268.076 1238.53 267.084L1240.17 265.188C1241.53 266.862 1243.18 267.7 1245.14 267.7C1246.68 267.7 1247.88 267.267 1248.73 266.401C1249.6 265.535 1250.03 264.316 1250.03 262.744V261.154C1248.77 262.613 1247.04 263.342 1244.85 263.342C1242.69 263.342 1240.93 262.47 1239.59 260.727C1238.26 258.984 1237.59 256.608 1237.59 253.601ZM1240.77 253.959C1240.77 256.044 1241.2 257.685 1242.05 258.881C1242.91 260.066 1244.1 260.659 1245.64 260.659C1247.63 260.659 1249.1 259.753 1250.03 257.941V249.499C1249.06 247.733 1247.61 246.85 1245.67 246.85C1244.14 246.85 1242.93 247.448 1242.07 248.645C1241.2 249.841 1240.77 251.612 1240.77 253.959ZM1265.67 263.342C1263.16 263.342 1261.12 262.521 1259.55 260.881C1257.98 259.229 1257.19 257.024 1257.19 254.267V253.686C1257.19 251.852 1257.54 250.217 1258.24 248.781C1258.94 247.334 1259.92 246.206 1261.17 245.397C1262.44 244.577 1263.81 244.167 1265.28 244.167C1267.68 244.167 1269.55 244.959 1270.88 246.542C1272.21 248.126 1272.88 250.393 1272.88 253.344V254.66H1260.35C1260.4 256.483 1260.93 257.958 1261.94 259.086C1262.97 260.203 1264.27 260.761 1265.84 260.761C1266.96 260.761 1267.9 260.533 1268.68 260.078C1269.45 259.622 1270.13 259.018 1270.71 258.266L1272.64 259.77C1271.09 262.151 1268.77 263.342 1265.67 263.342ZM1265.28 246.765C1264 246.765 1262.93 247.232 1262.06 248.166C1261.2 249.089 1260.66 250.388 1260.46 252.062H1269.72V251.823C1269.63 250.217 1269.2 248.975 1268.42 248.098C1267.65 247.209 1266.6 246.765 1265.28 246.765Z" fill="#808080"/>
<rect x="400.984" y="126.304" width="13.071" height="75.6253" fill="#DCDCDC"/>
<circle cx="407.52" cy="127.472" r="6.53552" fill="#DCDCDC"/>
<circle cx="407.52" cy="200.063" r="6.53552" fill="#DCDCDC"/>
<rect x="444.865" y="156.998" width="13.071" height="75.6253" transform="rotate(90 444.865 156.998)" fill="#DCDCDC"/>
<circle cx="443.699" cy="163.534" r="6.53552" transform="rotate(90 443.699 163.534)" fill="#DCDCDC"/>
<circle cx="371.107" cy="163.534" r="6.53552" transform="rotate(90 371.107 163.534)" fill="#DCDCDC"/>
<rect x="963.67" y="146.255" width="13.1709" height="76.2032" transform="rotate(90 963.67 146.255)" fill="#DCDCDC"/>
<circle cx="962.495" cy="152.84" r="6.58546" transform="rotate(90 962.495 152.84)" fill="#DCDCDC"/>
<circle cx="889.348" cy="152.84" r="6.58546" transform="rotate(90 889.348 152.84)" fill="#DCDCDC"/>
<rect x="963.67" y="181.299" width="13.1709" height="76.2032" transform="rotate(90 963.67 181.299)" fill="#DCDCDC"/>
<circle cx="962.495" cy="187.884" r="6.58546" transform="rotate(90 962.495 187.884)" fill="#DCDCDC"/>
<circle cx="889.348" cy="187.884" r="6.58546" transform="rotate(90 889.348 187.884)" fill="#DCDCDC"/>
<path d="M325.5 164C325.5 253.751 252.966 326.5 163.5 326.5C74.0342 326.5 1.5 253.751 1.5 164C1.5 74.2494 74.0342 1.5 163.5 1.5C252.966 1.5 325.5 74.2494 325.5 164Z" fill="#FCFCFC" stroke="#E1DFDF" stroke-width="3"/>
<path d="M160.5 61L64 113.667L99.0909 132.802V185.469L160.5 219L221.909 185.469V132.802L239.455 123.234V183.889H257V113.667L160.5 61ZM220.33 113.667L160.5 146.32L100.67 113.667L160.5 81.0133L220.33 113.667ZM204.364 175.111L160.5 198.987L116.636 175.111V142.37L160.5 166.333L204.364 142.37V175.111Z" fill="#B7CFE1"/>
<path d="M110.888 263V238.117H117.912C120.077 238.117 121.991 238.596 123.654 239.553C125.318 240.51 126.599 241.871 127.5 243.637C128.411 245.403 128.872 247.431 128.884 249.721V251.311C128.884 253.658 128.428 255.714 127.517 257.48C126.617 259.246 125.323 260.602 123.637 261.547C121.962 262.493 120.008 262.977 117.775 263H110.888ZM114.169 240.817V260.317H117.622C120.151 260.317 122.116 259.531 123.518 257.958C124.93 256.386 125.637 254.147 125.637 251.242V249.79C125.637 246.964 124.97 244.771 123.637 243.21C122.316 241.638 120.436 240.84 117.998 240.817H114.169ZM141.035 263.342C138.528 263.342 136.489 262.521 134.917 260.881C133.344 259.229 132.558 257.024 132.558 254.267V253.686C132.558 251.852 132.906 250.217 133.601 248.781C134.307 247.334 135.287 246.206 136.54 245.397C137.805 244.577 139.172 244.167 140.642 244.167C143.046 244.167 144.914 244.959 146.247 246.542C147.58 248.126 148.247 250.393 148.247 253.344V254.66H135.72C135.765 256.483 136.295 257.958 137.309 259.086C138.334 260.203 139.633 260.761 141.206 260.761C142.322 260.761 143.268 260.533 144.042 260.078C144.817 259.622 145.495 259.018 146.076 258.266L148.007 259.77C146.458 262.151 144.134 263.342 141.035 263.342ZM140.642 246.765C139.366 246.765 138.295 247.232 137.429 248.166C136.563 249.089 136.027 250.388 135.822 252.062H145.085V251.823C144.994 250.217 144.561 248.975 143.786 248.098C143.011 247.209 141.963 246.765 140.642 246.765ZM151.169 253.601C151.169 250.718 151.835 248.428 153.168 246.73C154.501 245.021 156.267 244.167 158.466 244.167C160.722 244.167 162.482 244.965 163.747 246.56L163.901 244.509H166.789V262.556C166.789 264.948 166.077 266.834 164.653 268.212C163.24 269.591 161.337 270.28 158.945 270.28C157.612 270.28 156.307 269.995 155.031 269.426C153.755 268.856 152.781 268.076 152.109 267.084L153.75 265.188C155.105 266.862 156.763 267.7 158.723 267.7C160.261 267.7 161.457 267.267 162.312 266.401C163.177 265.535 163.61 264.316 163.61 262.744V261.154C162.346 262.613 160.62 263.342 158.432 263.342C156.267 263.342 154.513 262.47 153.168 260.727C151.835 258.984 151.169 256.608 151.169 253.601ZM154.348 253.959C154.348 256.044 154.775 257.685 155.629 258.881C156.484 260.066 157.68 260.659 159.218 260.659C161.212 260.659 162.676 259.753 163.61 257.941V249.499C162.642 247.733 161.189 246.85 159.252 246.85C157.714 246.85 156.512 247.448 155.646 248.645C154.781 249.841 154.348 251.612 154.348 253.959ZM180.512 247.346C180.034 247.266 179.515 247.226 178.957 247.226C176.883 247.226 175.476 248.109 174.736 249.875V263H171.574V244.509H174.65L174.702 246.645C175.738 244.993 177.208 244.167 179.111 244.167C179.726 244.167 180.193 244.247 180.512 244.406V247.346ZM190.766 263.342C188.26 263.342 186.22 262.521 184.648 260.881C183.076 259.229 182.29 257.024 182.29 254.267V253.686C182.29 251.852 182.637 250.217 183.332 248.781C184.038 247.334 185.018 246.206 186.271 245.397C187.536 244.577 188.903 244.167 190.373 244.167C192.777 244.167 194.646 244.959 195.979 246.542C197.312 248.126 197.978 250.393 197.978 253.344V254.66H185.451C185.497 256.483 186.027 257.958 187.041 259.086C188.066 260.203 189.365 260.761 190.937 260.761C192.054 260.761 192.999 260.533 193.774 260.078C194.549 259.622 195.227 259.018 195.808 258.266L197.739 259.77C196.189 262.151 193.865 263.342 190.766 263.342ZM190.373 246.765C189.097 246.765 188.026 247.232 187.16 248.166C186.294 249.089 185.759 250.388 185.554 252.062H194.816V251.823C194.725 250.217 194.292 248.975 193.518 248.098C192.743 247.209 191.695 246.765 190.373 246.765ZM209.326 263.342C206.819 263.342 204.78 262.521 203.208 260.881C201.635 259.229 200.849 257.024 200.849 254.267V253.686C200.849 251.852 201.197 250.217 201.892 248.781C202.598 247.334 203.578 246.206 204.831 245.397C206.096 244.577 207.463 244.167 208.933 244.167C211.337 244.167 213.205 244.959 214.538 246.542C215.871 248.126 216.538 250.393 216.538 253.344V254.66H204.011C204.056 256.483 204.586 257.958 205.6 259.086C206.625 260.203 207.924 260.761 209.497 260.761C210.613 260.761 211.559 260.533 212.333 260.078C213.108 259.622 213.786 259.018 214.367 258.266L216.298 259.77C214.749 262.151 212.425 263.342 209.326 263.342ZM208.933 246.765C207.657 246.765 206.586 247.232 205.72 248.166C204.854 249.089 204.318 250.388 204.113 252.062H213.376V251.823C213.285 250.217 212.852 248.975 212.077 248.098C211.302 247.209 210.254 246.765 208.933 246.765Z" fill="#808080"/>
</svg>
